<svg xmlns="http://www.w3.org/2000/svg" xmlns:xlink="http://www.w3.org/1999/xlink" width="46" height="46" viewBox="0 0 46 46"><defs><path id="a" d="M1474 882h46v46h-46z"/><path id="c" d="M1503.7 907.37c-.38.4-1 .4-1.39 0l-5.67-5.96-6.02 6.32a.91.91 0 0 1-1.34 0 1.03 1.03 0 0 1 0-1.4l6.02-6.32a.93.93 0 0 1 .5-.28c.04-.15.12-.3.24-.42.38-.4 1-.4 1.4 0l6.27 6.6c.38.4.38 1.05 0 1.46z"/><clipPath id="b"><use fill="#fff" xlink:href="#a"/></clipPath></defs><g transform="translate(-1474 -882)"><use fill="#f3f8fc" xlink:href="#a"/><use fill="#fff" fill-opacity="0" stroke="#dfebf5" stroke-linecap="round" stroke-linejoin="round" stroke-miterlimit="50" stroke-width="2" clip-path="url(&amp;quot;#b&amp;quot;)" xlink:href="#a"/></g><use fill="#363636" xlink:href="#c" transform="translate(-1474 -882)"/></svg>