<svg xmlns="http://www.w3.org/2000/svg" xmlns:xlink="http://www.w3.org/1999/xlink" width="47" height="47" viewBox="0 0 47 47"><defs><path id="a" d="M1817 1901h42a2 2 0 0 1 2 2v42a2 2 0 0 1-2 2h-42a2 2 0 0 1-2-2v-42c0-1.1.9-2 2-2z"/><path id="b" d="M1831.26 1925.88l6.29-6.57a.96.96 0 0 1 1.4 0c.11.12.2.27.24.42.18.04.36.13.5.27l6.03 6.3c.37.39.37 1.02 0 1.4a.92.92 0 0 1-1.34 0l-6.03-6.3-5.69 5.94a.96.96 0 0 1-1.4 0 1.07 1.07 0 0 1 0-1.46z"/></defs><g fill="#fff" transform="translate(-1815 -1900)"><use xlink:href="#a"/><use fill-opacity="0" stroke="#e6562c" stroke-miterlimit="50" stroke-width="2" clip-path="url(&amp;quot;#b&amp;quot;)" xlink:href="#a"/></g><use fill="#e65024" xlink:href="#b" transform="translate(-1815 -1900)"/></svg>