<svg xmlns="http://www.w3.org/2000/svg" xmlns:xlink="http://www.w3.org/1999/xlink" width="47" height="47" viewBox="0 0 47 47"><defs><path id="y6r7a" d="M1817 1901h42a2 2 0 0 1 2 2v42a2 2 0 0 1-2 2h-42a2 2 0 0 1-2-2v-42c0-1.1.9-2 2-2z"/><path id="y6r7c" d="M1831.26 1925.88l6.29-6.57a.96.96 0 0 1 1.4 0c.11.12.2.27.24.42.18.04.36.13.5.27l6.03 6.3c.37.39.37 1.02 0 1.4a.92.92 0 0 1-1.34 0l-6.03-6.3-5.69 5.94a.96.96 0 0 1-1.4 0 1.07 1.07 0 0 1 0-1.46z"/><clipPath id="y6r7b"><use fill="#fff" xlink:href="#y6r7a"/></clipPath></defs><g><g transform="translate(-1815 -1900)"><g><use fill="#fff" xlink:href="#y6r7a"/><use fill="#fff" fill-opacity="0" stroke="#e6562c" stroke-miterlimit="50" stroke-width="2" clip-path="url(&quot;#y6r7b&quot;)" xlink:href="#y6r7a"/></g><g><use fill="#e65024" xlink:href="#y6r7c"/></g></g></g></svg>